<svg width="142" height="140" viewBox="0 0 142 140" fill="none" xmlns="http://www.w3.org/2000/svg">
<path d="M94.5669 30.0686L19.2899 88.0337C18.5142 88.1195 17.3614 87.9266 15.8315 87.455C13.9138 86.8549 12.093 85.9655 10.3692 84.7866C5.45629 81.4431 2.48271 76.6422 1.44842 70.3838C0.435673 64.3826 1.36222 57.942 4.22807 51.0621C5.17617 48.7902 6.33975 46.4433 7.7188 44.0214L10.2399 39.8098C12.2869 36.1877 13.9784 32.6084 15.3144 29.072C17.5338 23.1565 18.1371 18.7842 17.1244 15.9551L18.1587 16.0837C18.9344 16.2337 19.5593 16.5123 20.0333 16.9195C19.9687 16.2337 19.7855 15.43 19.4839 14.5083C18.859 12.6223 17.9647 11.0362 16.8012 9.75026L20.2919 9.26802C23.2439 9.28945 26.2391 10.1253 29.2773 11.7757L29.051 10.0075C28.9648 8.80721 29.0834 8.14279 29.4066 8.0142C29.9022 7.8213 30.6132 8.29282 31.5398 9.42877C31.5613 8.48572 31.766 7.41408 32.1539 6.21384C32.9081 3.85623 34.1794 2.0773 35.9679 0.87706L37.7455 4.12414C39.4047 6.46032 41.4302 8.0785 43.822 8.97868C45.9121 9.79312 50.6526 10.4147 58.0435 10.8433C65.1973 11.272 70.2395 12.1507 73.17 13.4796L76.2729 13.7368C78.7939 14.0583 81.1211 14.6477 83.2543 15.505C90.128 18.2698 93.8989 23.1244 94.5669 30.0686Z" fill="#68AE28"/>
<path d="M3.67892 76.685C-1.19087 67.5546 -0.027292 57.0633 7.16965 45.2109C3.52808 54.7914 4.7563 62.4536 10.8543 68.1976C13.5047 70.6838 16.8446 72.5056 20.874 73.663C24.8172 74.7775 28.9975 75.1419 33.4148 74.7561L18.3529 88.2909C16.155 88.098 13.7094 87.0371 11.0159 85.1081C7.93459 82.8577 5.48892 80.05 3.67892 76.685Z" fill="#56931F"/>
<path d="M124.108 25.8249C126.026 26.6607 127.696 29.5006 129.118 34.3444C130.39 38.7381 130.821 41.8459 130.411 43.6677C132.954 46.604 135.432 52.3373 137.845 60.8676C140.582 70.4266 141.045 77.3816 139.235 81.7324C138.653 83.1256 136.951 85.0224 134.128 87.4229C131.198 89.9519 128.3 91.9023 125.434 93.274L126.888 95.6209C128.052 97.6785 129.097 99.8968 130.023 102.276C132.975 109.949 134.204 117.9 133.708 126.131C133.557 128.745 131.381 130.889 127.179 132.56C123.063 134.168 118.678 134.704 114.024 134.168C112.451 133.954 110.372 132.121 107.786 128.67C104.834 124.662 103.078 120.504 102.518 116.196C98.5744 118.468 95.2453 120.001 92.5303 120.794L91.6899 122.208C90.9573 123.366 90.0954 124.437 89.1042 125.423C85.9798 128.595 82.2844 130.364 78.0179 130.728C73.773 131.092 70.4762 130.76 68.1275 129.731C67.3949 129.41 66.7916 129.035 66.3175 128.606L65.865 128.06L40.0401 128.928L37.3897 131.242C35.0195 132.807 32.2829 133.632 29.18 133.718C24.9351 133.846 21.5952 133.461 19.1603 132.56C16.1006 131.403 13.9243 129.292 12.6314 126.227C10.7567 121.812 9.76555 116.754 9.65781 111.053C9.50697 103.637 11.1769 97.5713 14.6677 92.8561C18.0291 88.3123 22.4141 83.6828 27.8225 78.9676C29.3309 77.6602 33.4357 74.3381 40.137 69.0013C43.5631 66.3008 46.6121 63.686 49.284 61.1569C51.9991 58.585 53.6475 56.7417 54.2293 55.6272C54.8541 51.3621 55.673 47.0327 56.6857 42.6389C58.7327 33.8515 60.7151 29.1577 62.6329 28.5575C64.5506 27.9789 67.3734 28.5897 71.1011 30.3901C72.9542 31.3117 74.6134 32.2761 76.0786 33.2835L78.2765 32.5119C80.2158 31.9332 82.3382 31.4403 84.6439 31.033C92.0132 29.7685 99.835 29.6935 108.109 30.808C109.359 29.4792 112.117 28.1932 116.384 26.9501C120.499 25.7498 123.074 25.3748 124.108 25.8249Z" fill="#7CBEB3"/>
<path d="M129.959 38.6204L130.605 43.6678L127.276 38.749C127.621 37.313 127.772 35.3733 127.729 32.9299L127.535 29.715C128.526 31.8369 129.334 34.8053 129.959 38.6204Z" fill="#68A198"/>
<path d="M55.9426 44.3107C57.688 36.3377 59.401 31.7296 61.0818 30.4865C60.6724 35.116 60.5323 39.6919 60.6616 44.2143C60.7478 46.872 61.0279 50.9228 61.5019 56.3667C61.7821 59.6031 61.4481 62.4751 60.5 64.9827C59.6596 67.1688 58.5607 68.6584 57.2032 69.4515C55.8672 70.223 54.7683 70.0516 53.9064 68.9371C52.9798 67.7154 52.6674 65.615 52.9691 62.6358C53.5724 56.6989 54.5636 50.5905 55.9426 44.3107Z" fill="#68A198"/>
<path d="M114.283 126.034C115.943 129.12 117.925 131.049 120.231 131.821L119.002 134.264C115.749 134.907 112.872 134.061 110.372 131.725C107.377 128.874 104.727 123.698 102.421 116.196C98.6936 118.447 94.5564 120.129 90.0098 121.244C85.5279 122.358 80.141 123.034 73.849 123.269C72.8579 123.591 72.136 124.277 71.6835 125.327C71.231 126.334 71.2202 127.245 71.6512 128.06L69.8412 130.181L65.9626 127.834C66.0703 127.106 66.6737 124.93 67.7726 121.308C68.85 117.836 69.5287 114.825 69.8089 112.274C70.6277 104.644 68.4944 97.7428 63.4092 91.5701C67.9342 96.0924 75.8638 98.9323 87.1979 100.09C99.3077 101.311 109.597 100.218 118.065 96.8104C115.35 98.5465 113.411 101.247 112.247 104.912C111.213 108.213 110.9 111.867 111.31 115.875C111.719 119.733 112.71 123.119 114.283 126.034Z" fill="#68A198"/>
<path d="M9.33471 107.581C10.2613 115.103 14.3984 119.937 21.7462 122.08C24.5689 122.894 27.5425 123.194 30.6669 122.98C33.5112 122.787 35.8492 122.23 37.6807 121.308L40.0402 129.217C38.3595 130.846 36.097 132.121 33.2527 133.043C27.5641 134.886 21.8432 134.082 16.0899 130.632C13.3103 128.96 11.3171 124.716 10.1104 117.9C9.72257 115.607 9.464 113.282 9.33471 110.924C9.22697 108.952 9.22697 107.838 9.33471 107.581Z" fill="#68A198"/>
<path d="M78.5353 55.1772C79.3757 55.0272 80.2699 55.1665 81.218 55.5952C77.9643 58.0814 76.262 61.8964 76.1112 67.0403C75.9604 71.7341 77.0378 76.1386 79.3434 80.2537C74.8183 79.7607 71.6293 78.7319 69.7762 77.1673C69.2375 76.6958 69.0112 75.3777 69.0974 73.213C69.1836 70.9625 69.5822 68.6049 70.2933 66.1401C72.1464 59.5817 74.8938 55.9274 78.5353 55.1772Z" fill="white"/>
<path d="M89.7185 67.4261C90.7312 70.1266 91.3561 72.5592 91.5931 74.724C91.8517 77.0387 91.5931 78.5819 90.8174 79.3535C90.3003 79.8678 88.9104 80.2215 86.6479 80.4144C84.3423 80.5858 81.9074 80.5323 79.3432 80.2536C77.0376 76.1385 75.9602 71.7341 76.1111 67.0403C76.2619 61.8964 77.9642 58.0814 81.2179 55.5952C84.4285 57.074 87.262 61.0177 89.7185 67.4261Z" fill="#D60040"/>
<path d="M127.567 53.5698C130.261 55.7559 131.866 59.0245 132.383 63.3753C132.706 66.0973 132.577 69.923 131.995 74.8526C131.047 75.217 130.131 75.4634 129.248 75.592C128.343 75.7421 127.664 75.7421 127.212 75.592C125.94 75.1848 125.305 71.9485 125.305 65.883C125.283 59.6889 126.037 55.5845 127.567 53.5698Z" fill="#D60040"/>
<path d="M127.567 53.5697C127.955 53.0339 128.365 52.7231 128.796 52.6374C130.886 52.1873 132.911 54.7271 134.872 60.2568C136.79 65.7436 137.167 69.6658 136.003 72.0234C135.465 73.1379 134.129 74.0809 131.995 74.8525C132.577 69.923 132.707 66.0972 132.383 63.3752C131.866 59.0244 130.261 55.7559 127.567 53.5697Z" fill="white"/>
<path d="M108.594 50.2905C107.969 50.5262 106.342 49.8725 103.714 48.3294C100.955 46.7433 99.6303 45.4467 99.738 44.4393C99.8888 43.1105 102.119 41.278 106.429 38.9418C110.803 36.5842 113.712 35.7162 115.155 36.3377C116.082 36.7235 115.597 38.9954 113.701 43.1533C111.783 47.3328 110.081 49.7118 108.594 50.2905Z" fill="#006359"/>
<path d="M94.2117 53.0554C94.1471 52.7768 94.4703 52.2517 95.1813 51.4801C95.914 50.6871 96.5712 50.2155 97.153 50.0655L97.864 51.0621C98.4674 52.0695 99.0707 53.484 99.6741 55.3058L99.2539 56.3025C98.8445 57.0312 98.3381 57.5348 97.7348 57.8135L96.1833 56.3346C95.1059 55.1558 94.4487 54.0627 94.2117 53.0554Z" fill="#006359"/>
<path d="M119.196 60.0638C119.864 63.8574 119.918 65.9793 119.358 66.4294C118.862 66.8366 117.354 66.6759 114.833 65.9471C112.29 65.2184 110.846 64.5111 110.501 63.8253C110.609 62.2393 111.428 60.2567 112.958 57.8777C114.531 55.4986 115.802 54.3091 116.772 54.3091C117.72 54.3091 118.528 56.2273 119.196 60.0638Z" fill="#006359"/>
<path d="M121.135 115.971C121.049 114.75 121.803 113.003 123.398 110.731C124.949 108.502 126.069 107.43 126.759 107.516C127.793 107.623 128.504 109.777 128.892 113.978C129.259 118.2 128.925 120.483 127.89 120.826C126.748 121.212 125.38 120.997 123.785 120.183C121.954 119.219 121.07 117.815 121.135 115.971Z" fill="#006359"/>
<path d="M18.6759 97.9035L24.009 98.1285C26.4008 98.6001 27.7798 99.1252 28.1461 99.7039C28.7495 100.668 28.3509 102.704 26.9502 105.812C25.5712 108.899 24.4076 110.485 23.4595 110.57C22.6407 110.635 20.9815 109.82 18.482 108.127C15.9609 106.434 14.7111 105.255 14.7327 104.591C14.7542 103.733 15.1744 102.512 15.9932 100.926C16.8982 99.1466 17.7925 98.1393 18.6759 97.9035Z" fill="#006359"/>
<path d="M49.4138 70.3516C49.9741 71.3161 49.0691 73.9952 46.6988 78.3889C44.3286 82.7827 42.5078 85.1189 41.2365 85.3975C40.0729 85.6761 38.1767 85.1724 35.5479 83.8865C33.0699 82.7077 31.4215 81.6253 30.6027 80.6394C30.3441 80.3179 30.5165 79.3749 31.1198 77.8103L32.0895 75.5277L36.4206 72.1198C39.3511 69.8265 40.9887 68.637 41.3334 68.5513L45.3736 68.9049C47.7439 69.3121 49.0906 69.7944 49.4138 70.3516Z" fill="#006359"/>
<path d="M82.2201 58.8422C82.9096 58.8422 83.5129 59.5173 84.0301 60.8676C84.5472 62.3036 84.795 64.0932 84.7734 66.2365C84.7304 68.2726 84.4502 69.8801 83.9331 71.0589C83.459 72.1305 82.8773 72.6663 82.1877 72.6663C81.5413 72.6663 80.9811 72.0877 80.507 70.9303C79.9899 69.7086 79.7097 68.1655 79.6667 66.3008C79.5805 64.0503 79.8175 62.2178 80.3777 60.8033C80.8733 59.4959 81.4874 58.8422 82.2201 58.8422Z" fill="white"/>
<path d="M126.048 59.5495L126.695 56.656C126.953 56.3131 127.201 56.1524 127.438 56.1738C127.826 56.1952 128.192 56.6132 128.537 57.4276C129.033 58.5207 129.302 60.0639 129.345 62.0571C129.367 63.9432 129.194 65.4114 128.828 66.4616C128.483 67.4046 128.052 67.8761 127.535 67.8761C127.212 67.8761 126.889 67.6404 126.565 67.1689C126.221 66.6545 125.984 65.9793 125.854 65.1434C125.596 63.6646 125.66 61.7999 126.048 59.5495Z" fill="white"/>
<path d="M112.279 32.287C106.375 31.151 100.396 30.7116 94.3406 30.9688C87.8332 31.226 81.8537 32.2762 76.4022 34.1195C76.2082 34.1838 75.9389 33.9694 75.5941 33.4765C75.2278 32.9835 75.1416 32.6942 75.3356 32.6084C81.5198 30.5295 88.2211 29.415 95.4396 29.2649C101.775 29.1149 107.56 29.7043 112.796 31.0331C115.468 31.719 116.739 32.2227 116.61 32.5442L112.279 32.287Z" fill="#0D131A"/>
<path d="M129.733 41.2566C134.107 47.5578 137.296 54.8664 139.3 63.1824C141.045 70.4267 141.476 76.0314 140.593 79.9964C139.623 84.3902 134.796 88.8911 126.113 93.4991C117.494 98.0858 109.165 100.626 101.128 101.119C92.5306 101.633 84.4394 100.926 76.8546 98.9967C69.2698 97.0677 64.3785 94.4636 62.1806 91.1844C61.4695 90.1127 61.2433 89.459 61.5019 89.2233C61.782 88.9875 62.4176 89.4055 63.4088 90.4771C66.3178 93.6492 71.5 96.0711 78.9555 97.7428C86.0447 99.3289 93.4464 99.8861 101.16 99.4146C109.219 98.9216 117.354 96.4033 125.563 91.8595C133.45 87.4872 137.824 83.3507 138.686 79.4499C139.591 75.3991 139.214 69.9337 137.555 63.0538C135.701 55.3594 132.739 48.4366 128.666 42.2853C126.985 39.7348 126.328 38.3203 126.694 38.0416C127.039 37.763 128.052 38.8347 129.733 41.2566Z" fill="#0D131A"/>
<path d="M54.8438 55.9809C53.4216 58.6386 50.545 61.7999 46.2139 65.4649C43.6282 67.6296 39.2755 71.0589 33.156 75.7527C27.5751 80.1679 23.2656 84.0579 20.2274 87.4229C16.0471 92.0524 13.2674 96.6069 11.8884 101.086C10.2292 106.466 10.143 112.51 11.6298 119.219C13.0089 125.541 14.9697 129.442 17.5123 130.921C20.2489 132.507 23.9336 133.203 28.5663 133.011C33.3499 132.818 36.6575 131.703 38.489 129.667C41.3118 126.516 42.4107 121.415 41.7858 114.364C41.1394 107.163 38.9415 101.419 35.1922 97.132C33.727 95.4388 33.1021 94.41 33.3176 94.0456C33.5331 93.6813 34.4488 94.3564 36.0649 96.071C40.7839 101.108 43.4127 107.27 43.9514 114.557C44.447 121.48 42.9925 126.838 39.588 130.632C37.5409 132.925 33.8563 134.211 28.534 134.489C23.3841 134.768 19.3008 134.029 16.2841 132.271C13.2243 130.492 10.9834 126.291 9.56124 119.669C8.11754 112.853 8.2576 106.552 9.98142 100.765C11.2958 96.3925 13.8923 92.0095 17.7709 87.6158C20.5937 84.4009 24.677 80.6394 30.0208 76.3314L43.2726 65.6578C48.0562 61.5642 51.6224 57.8027 53.9711 54.3734C54.0788 54.2234 54.2727 54.4056 54.5529 54.92C54.8545 55.4558 54.9515 55.8094 54.8438 55.9809Z" fill="#0D131A"/>
<path d="M62.7626 27.5931C64.0986 27.1645 66.3503 27.5931 69.5178 28.8791C72.7069 30.1865 75.325 31.7832 77.372 33.6693C78.9881 35.1696 79.6129 36.0162 79.2466 36.2091C78.9019 36.4235 77.9107 35.8984 76.2731 34.6338C74.1614 33.0478 71.7157 31.7082 68.9361 30.6152C66.221 29.5221 64.4003 29.1363 63.4737 29.4578C61.9654 29.9507 60.22 33.7551 58.2376 40.8708C56.1475 48.3937 54.79 56.281 54.1651 64.5326C53.9927 66.9117 53.691 68.0048 53.2601 67.8119C52.8076 67.619 52.6244 66.4937 52.7106 64.4362C52.9907 57.299 54.0681 49.8297 55.9428 42.0281C58.076 33.1978 60.3493 28.3861 62.7626 27.5931Z" fill="#0D131A"/>
<path d="M107.076 30.358C108.95 28.9434 111.827 27.5932 115.706 26.3072C120.08 24.8498 123.118 24.5068 124.82 25.2784C126.501 26.0286 128.031 28.5469 129.41 32.8335C130.681 36.82 131.392 40.8279 131.543 44.8573C131.543 45.0502 131.274 44.8466 130.735 44.2465C130.175 43.6464 129.895 43.2391 129.895 43.0248C129.765 39.767 129.011 36.3378 127.632 32.737C126.318 29.3078 125.1 27.336 123.98 26.8216C122.924 26.35 120.511 26.6501 116.74 27.7218C112.926 28.7934 110.211 29.9401 108.595 31.1617C108.444 31.2903 108.11 31.226 107.593 30.9688C107.097 30.6902 106.925 30.4866 107.076 30.358Z" fill="#0D131A"/>
<path d="M108.271 49.3903C109.327 49.3689 110.803 47.3649 112.699 43.3784C114.574 39.4562 115.274 37.3772 114.8 37.1414C113.744 36.6056 111.126 37.3879 106.946 39.4883C102.744 41.5887 100.633 43.2069 100.611 44.3429C100.59 45.0501 101.516 46.0468 103.391 47.3327C105.308 48.6187 106.935 49.3046 108.271 49.3903ZM105.686 38.6203C110.275 36.1555 113.55 35.1053 115.511 35.4697C116.179 35.5983 116.373 36.477 116.093 38.1059C115.835 39.6062 115.253 41.3637 114.348 43.3784C112.085 48.3937 110.06 50.8584 108.271 50.7727C106.849 50.687 104.953 49.8725 102.583 48.3294C100.105 46.7219 98.8657 45.3609 98.8657 44.2464C98.8657 42.939 101.139 41.0636 105.686 38.6203Z" fill="#0D131A"/>
<path d="M99.0274 55.4986C99.092 55.3272 98.855 54.5342 98.3163 53.1196C97.7776 51.6836 97.3898 50.9549 97.1527 50.9335C96.9588 50.912 96.5278 51.2014 95.8599 51.8015C95.1919 52.4016 94.8579 52.8517 94.8579 53.1517C94.8795 53.4304 95.332 54.1591 96.2154 55.3379C97.0989 56.4738 97.616 57.0418 97.7669 57.0418C97.8961 57.0418 98.1224 56.8275 98.4456 56.3988L99.0274 55.4986ZM99.092 52.123C99.76 53.709 100.105 54.7914 100.126 55.3701C100.148 55.8416 99.8031 56.4846 99.092 57.299C98.3594 58.1349 97.8099 58.4671 97.4436 58.2956C97.0127 58.1027 96.2693 57.3097 95.2134 55.9166C94.0714 54.4377 93.5435 53.4197 93.6297 52.8624C93.7159 52.2837 94.2222 51.555 95.1488 50.6763C96.0754 49.8404 96.7757 49.4332 97.2497 49.4546C97.7453 49.4975 98.3594 50.3869 99.092 52.123Z" fill="#0D131A"/>
<path d="M116.545 55.2415C115.877 55.1987 114.779 56.4525 113.249 59.003C111.762 61.5321 111.105 63.0431 111.277 63.5361C111.449 63.9861 112.667 64.5327 114.929 65.1757C117.213 65.8187 118.517 65.9901 118.84 65.6901C119.336 65.2185 119.239 63.3646 118.549 60.1282C117.86 56.9133 117.192 55.2844 116.545 55.2415ZM112.15 57.9421C114.024 54.7272 115.5 53.1733 116.578 53.2804C117.935 53.409 119.023 55.6381 119.842 59.9675C120.64 64.2755 120.575 66.6545 119.648 67.1046C118.851 67.5119 117.095 67.2654 114.38 66.3652C111.708 65.4864 110.243 64.7363 109.984 64.1147C109.575 63.1931 110.297 61.1356 112.15 57.9421Z" fill="#0D131A"/>
<path d="M71.0692 61.6392C73.5903 56.5596 76.2945 54.1806 79.1819 54.5021C83.2544 54.9736 86.756 58.3922 89.6864 64.7577C90.9147 67.4582 91.7227 70.1266 92.1106 72.7629C92.52 75.5063 92.3799 77.6924 91.6904 79.3213C91.3241 80.2215 89.945 80.8216 87.5532 81.1217C85.3553 81.3789 82.8019 81.3574 79.893 81.0574C76.9625 80.7573 74.463 80.2322 72.3944 79.4821C70.1103 78.6891 68.8713 77.7782 68.6774 76.7494C67.7078 71.8627 68.505 66.826 71.0692 61.6392ZM86.2603 62.0893C83.9978 58.2743 81.5845 56.2274 79.0203 55.9488C78.0076 55.8416 76.9086 56.3989 75.7235 57.6206C73.9351 59.4638 72.4914 62.1215 71.3924 65.5936C70.2289 69.3658 69.8841 72.9772 70.3581 76.4279C70.5305 77.7567 73.7519 78.7641 80.0223 79.4499C86.2927 80.1572 89.6972 79.8893 90.2359 78.6462C90.7961 77.2959 90.6992 74.9383 89.945 71.5734C89.1477 68.0584 87.9195 64.897 86.2603 62.0893Z" fill="#0D131A"/>
<path d="M133.87 59.5173C132.254 55.5308 130.627 53.5376 128.989 53.5376C127.546 53.5376 126.662 56.9347 126.339 63.7289C126.016 70.4802 126.425 74.1881 127.567 74.8525C128.321 75.2812 129.743 75.0454 131.834 74.1452C133.924 73.2451 135.055 72.3985 135.227 71.6054C136.068 67.8118 135.615 63.7825 133.87 59.5173ZM124.82 63.1823C125.186 55.7666 126.576 52.0587 128.989 52.0587C131.079 52.0587 133.105 54.277 135.066 58.7136C137.113 63.3859 137.684 67.7475 136.779 71.7983C136.456 73.17 134.861 74.3917 131.995 75.4634C129.216 76.5136 127.449 76.7172 126.694 76.0742C125.983 75.4955 125.455 73.9095 125.111 71.3161C124.766 68.8299 124.669 66.1186 124.82 63.1823Z" fill="#0D131A"/>
<path d="M40.978 67.9404L46.6342 68.294C48.8321 68.6798 50.0927 69.1835 50.4159 69.8051C50.9977 70.9839 49.9418 74.0059 47.2484 78.8712C44.5549 83.7793 42.4971 86.2333 41.0749 86.2333C39.7174 86.2333 37.498 85.5582 34.4167 84.2079C31.163 82.7934 29.5361 81.636 29.5361 80.7358C29.5361 80.2214 29.7732 79.4498 30.2472 78.4211L31.7986 75.399C31.9064 75.2276 32.1973 75.1204 32.6713 75.0775C33.1669 75.0561 33.3609 75.1311 33.2531 75.3026C32.6713 76.3742 32.2081 77.4137 31.8633 78.4211C31.5616 79.2998 31.4108 79.9321 31.4108 80.3179C31.497 80.8966 32.8868 81.786 35.5803 82.9863C38.2091 84.1651 40.0299 84.7652 41.0426 84.7866C41.9907 84.4866 43.5422 82.3004 45.6969 78.2282C47.8517 74.1559 48.7782 71.6697 48.4766 70.7695C48.3042 70.4052 47.3776 70.0623 45.6969 69.7408L40.6871 69.3871C40.4716 69.4085 40.4177 69.1728 40.5255 68.6798C40.6332 68.2083 40.784 67.9618 40.978 67.9404Z" fill="#0D131A"/>
<path d="M18.9666 98.4822C18.2986 98.8037 17.5337 99.6931 16.6718 101.151C15.8099 102.587 15.4112 103.583 15.4759 104.14C15.5621 104.719 16.7041 105.78 18.902 107.323C21.0998 108.866 22.522 109.595 23.1684 109.509C23.8148 109.424 24.8168 107.945 26.1743 105.073C27.5318 102.201 28.0382 100.583 27.6934 100.218C27.3056 99.8324 25.8942 99.3824 23.4593 98.868C20.9813 98.3536 19.4837 98.225 18.9666 98.4822ZM15.3789 100.315C16.3916 98.6429 17.3505 97.5713 18.2555 97.0998L23.8472 97.357C26.95 97.9356 28.76 98.6322 29.2772 99.4467C29.7512 100.197 29.2125 102.297 27.6611 105.748C26.1097 109.177 24.8384 111.074 23.8472 111.438C23.093 111.738 21.3153 110.913 18.5141 108.963C15.6698 106.991 14.1722 105.448 14.0214 104.333C13.9137 103.369 14.3662 102.029 15.3789 100.315Z" fill="#0D131A"/>
<path d="M121.846 115.907V115.939C121.89 117.718 122.762 119.015 124.465 119.829C125.994 120.558 127.029 120.676 127.567 120.183C128.128 119.669 128.322 117.718 128.149 114.332C127.977 110.881 127.47 108.963 126.63 108.577C126.178 108.384 125.262 109.349 123.883 111.471C122.525 113.592 121.846 115.071 121.846 115.907ZM122.784 110.377C124.443 107.741 125.725 106.434 126.63 106.455C128.095 106.477 129.011 108.802 129.377 113.432C129.744 117.975 129.442 120.601 128.472 121.308C127.675 121.908 126.221 121.801 124.109 120.987C121.696 120.044 120.457 118.468 120.392 116.261C120.37 114.932 121.168 112.971 122.784 110.377Z" fill="#0D131A"/>
<path d="M136.973 78.4854C136.951 79.3213 136.833 80.0072 136.617 80.543L135.971 81.6039C134.915 82.847 132.394 84.4116 128.407 86.2977C124.292 88.2481 120.726 89.5234 117.709 90.1235C112.214 91.238 103.778 91.3344 92.4012 90.4128C81.024 89.5126 73.8379 88.1624 70.8428 86.362C70.3472 86.0405 69.8947 85.5154 69.4852 84.7867C69.1189 84.1651 68.8496 83.4793 68.6772 82.7291C68.354 81.3789 68.3324 80.618 68.6126 80.4465C68.8927 80.2751 69.3344 80.8966 69.9378 82.3112C70.3041 83.1471 70.6919 83.7901 71.1013 84.2402L72.3942 85.2046C74.8075 86.512 81.2611 87.6694 91.7548 88.6768C103.11 89.7698 111.665 89.7377 117.418 88.5803C120.004 88.0445 123.074 87.005 126.63 85.4618C129.927 84.0258 132.394 82.7184 134.031 81.5396C134.635 81.0895 135.076 80.6287 135.357 80.1572C135.658 79.6642 135.852 79.0641 135.938 78.3568C136.089 77.0709 136.305 76.4708 136.585 76.5565C136.865 76.6636 136.994 77.3066 136.973 78.4854Z" fill="#0D131A"/>
<path d="M87.9733 52.0908C88.7275 52.7767 89.4601 53.6126 90.1712 54.5985C90.9254 55.6272 91.4641 56.5596 91.7873 57.3955C92.2613 58.5957 92.2829 59.2708 91.8519 59.4209C91.3994 59.5495 90.893 59.0779 90.3328 58.0063C89.4062 56.1845 88.275 54.5342 86.939 53.0553C85.6893 51.6193 85.1937 50.7834 85.4522 50.5477C85.7324 50.3119 86.5727 50.8263 87.9733 52.0908Z" fill="#0D131A"/>
<path d="M124.399 52.3159C123.99 53.4947 123.731 54.7593 123.624 56.1095C123.537 57.2883 123.268 57.867 122.816 57.8456C122.363 57.8456 122.169 57.2669 122.234 56.1095C122.298 54.695 122.665 53.3018 123.333 51.9301C123.936 50.7085 124.378 50.1298 124.658 50.1941C124.916 50.2798 124.83 50.9871 124.399 52.3159Z" fill="#0D131A"/>
<path d="M110.21 86.0083C109.736 85.7726 109.359 85.4725 109.079 85.1081C108.799 84.7652 108.702 84.5187 108.788 84.3687L109.79 84.4009C110.415 84.5295 110.878 84.7331 111.18 85.0117C111.568 85.3975 111.643 85.7297 111.406 86.0083C111.169 86.287 110.771 86.287 110.21 86.0083Z" fill="#0D131A"/>
<path d="M121.233 84.4009C120.78 84.9582 120.371 85.1511 120.004 84.9796C119.638 84.8081 119.616 84.4545 119.94 83.9187C120.177 83.5329 120.554 83.19 121.071 82.8899C121.545 82.5898 121.847 82.4934 121.976 82.6006C122.062 82.6863 122.041 82.9113 121.911 83.2757L121.233 84.4009Z" fill="#0D131A"/>
<path d="M82.3817 55.7558C82.5756 55.8201 82.6618 56.1309 82.6402 56.6881C82.6187 57.2454 82.5217 57.4704 82.3493 57.3633C81.2504 56.6774 80.2161 57.2025 79.2465 58.9386C78.3414 60.5246 77.7166 62.7215 77.3718 65.5292C77.0055 68.4226 77.0486 71.1232 77.5011 73.6308C78.0398 76.4814 79.0418 78.5175 80.507 79.7392C80.6794 79.8678 80.5716 80.0607 80.1838 80.3179C79.7959 80.5536 79.5158 80.6072 79.3434 80.4786C77.5765 79.1712 76.3591 77.0065 75.6911 73.9845C75.1093 71.2625 75.0446 68.3476 75.4972 65.2399C75.9497 62.175 76.7792 59.7316 77.9859 57.9098C79.3003 55.9594 80.7656 55.2414 82.3817 55.7558Z" fill="#0D131A"/>
<path d="M127.018 53.8269C127.772 53.2482 128.645 53.4947 129.636 54.5663C130.627 55.6165 131.479 57.1811 132.19 59.2601C133.957 64.4683 134.032 69.5907 132.416 74.6275C132.351 74.8204 132.103 74.9597 131.673 75.0454C131.242 75.1097 131.048 75.0454 131.091 74.8525C132.405 70.7803 132.448 66.1615 131.22 60.9962C130.724 58.9172 130.11 57.2776 129.378 56.0773C128.645 54.8557 127.977 54.4056 127.374 54.7271C127.201 54.8342 127.061 54.7378 126.954 54.4377C126.846 54.1591 126.867 53.9555 127.018 53.8269Z" fill="#0D131A"/>
<path d="M124.626 93.7564C124.518 93.5849 124.744 93.3277 125.305 92.9848C125.843 92.6204 126.156 92.524 126.242 92.6954C132.362 102.533 135.087 114.01 134.419 127.127C134.355 128.349 133.417 129.613 131.607 130.921C129.884 132.164 127.75 133.203 125.208 134.039C119.045 136.054 114.412 135.979 111.309 133.814C109.262 132.378 107.14 129.635 104.942 125.584C102.83 121.705 101.753 118.758 101.71 116.743C101.71 116.55 102.012 116.336 102.615 116.1L103.488 116.004C103.531 117.997 104.533 120.815 106.494 124.459C108.584 128.338 110.685 131.017 112.796 132.496C115.49 134.361 119.551 134.414 124.982 132.657C127.179 131.95 129.032 131.071 130.541 130.021C132.114 128.949 132.922 127.963 132.965 127.063C133.59 114.803 130.81 103.701 124.626 93.7564Z" fill="#0D131A"/>
<path d="M106.558 114.139C100.977 118.49 94.3192 121.437 86.5836 122.98C79.4082 124.395 72.9978 124.32 67.3523 122.755C67.1583 122.691 67.126 122.358 67.2553 121.758C67.363 121.18 67.5139 120.912 67.7078 120.955C73.2456 122.498 79.4405 122.594 86.2927 121.244C93.2526 119.872 99.5661 117.268 105.233 113.432C107.388 111.974 108.584 111.395 108.821 111.696C109.036 111.974 108.282 112.789 106.558 114.139Z" fill="#0D131A"/>
<path d="M91.4643 120.633C91.572 120.462 92.0676 120.312 92.951 120.183L94.1146 120.279C92.4339 123.023 90.3545 125.413 87.8766 127.449C85.0323 129.785 82.2418 131.124 79.5053 131.467L69.8088 131.178C67.2662 130.557 65.7686 129.613 65.3161 128.349C65.2515 128.156 65.4131 127.835 65.8009 127.384C66.1672 126.913 66.3827 126.774 66.4474 126.967C66.8783 128.167 68.2035 129.067 70.4229 129.667C72.8363 130.331 75.7991 130.449 79.3113 130.021C81.3584 129.764 83.5239 128.745 85.808 126.967C88.0705 125.209 89.9559 123.098 91.4643 120.633Z" fill="#0D131A"/>
<path d="M16.2515 15.3442C16.4239 15.2156 16.8441 15.2156 17.5121 15.3442C18.5464 15.5371 19.4514 15.9979 20.2271 16.7267C20.3995 16.8553 20.4103 17.0589 20.2594 17.3375C20.1301 17.5947 19.9793 17.659 19.8069 17.5304C19.3544 17.1446 18.9127 16.8874 18.4817 16.7588L17.8676 16.7267L17.9969 17.7554L18.1908 19.6844C18.2555 22.5993 17.2966 26.4143 15.3142 31.1295C13.7628 34.8803 11.7696 38.7596 9.33473 42.7676C1.66374 55.4344 -0.0277526 66.3651 4.26024 75.5598C5.87632 79.032 8.1927 81.8718 11.2094 84.0794C13.8813 86.0083 16.4455 87.0586 18.9019 87.23C19.0958 87.2514 19.0635 87.4979 18.805 87.9695C18.5679 88.4624 18.3417 88.6982 18.1262 88.6767C15.2604 88.4838 12.3945 87.3586 9.52866 85.3011C6.3396 82.9863 3.91548 79.9857 2.25631 76.2993C-2.05324 66.7402 -0.18936 55.3487 7.84794 42.1246C11.6403 35.8662 14.2153 30.7223 15.5728 26.6929C17.0165 22.4278 17.2535 18.9664 16.2839 16.3087C16.0899 15.8158 16.0792 15.4943 16.2515 15.3442Z" fill="#0D131A"/>
<path d="M32.9942 14.219C33.1451 14.3691 33.1451 14.6048 32.9942 14.9263C32.8434 15.2693 32.6926 15.3657 32.5417 15.2157C30.9256 13.5439 28.8247 12.2044 26.239 11.197C23.8041 10.2754 21.617 9.86818 19.6777 9.97534C18.7727 10.0396 18.2879 10.1575 18.2233 10.329C18.1586 10.479 18.3741 10.9398 18.8697 11.7114C21.2184 15.3979 21.283 20.8418 19.0636 28.0432C17.857 31.9011 15.9715 36.7021 13.4074 42.4461C9.61496 52.3695 9.31329 61.2213 12.5023 69.0014C13.8168 72.2163 15.6375 74.9383 17.9647 77.1673C20.1195 79.2463 22.4466 80.6501 24.9462 81.3789C25.1185 81.4217 24.9892 81.6361 24.5583 82.0219C24.1273 82.3862 23.8149 82.547 23.621 82.5041C17.0058 80.5751 12.47 75.667 10.0136 67.7797C7.44941 59.6138 8.07429 50.9121 11.8882 41.6745L14.7325 35.2768C16.09 32.1476 17.1136 29.4149 17.8031 27.0788C19.9148 20.0488 19.667 14.8727 17.0597 11.5507C16.1762 10.4147 15.7668 9.686 15.8315 9.36451C15.8961 9.00015 16.5425 8.74295 17.7708 8.59292C20.0764 8.29286 22.6621 8.64651 25.5279 9.65385C28.5662 10.7255 31.0549 12.2472 32.9942 14.219Z" fill="#0D131A"/>
<path d="M30.7319 8.01419L31.9278 8.97867C32.0571 9.1287 32.0248 9.43947 31.8308 9.91099C31.6369 10.3611 31.4753 10.5111 31.346 10.3611L30.6673 9.55735C30.2794 9.17156 29.9885 9.02153 29.7946 9.10726C29.6222 9.19299 29.5576 9.47162 29.6007 9.94314L29.8915 11.7757C29.9346 11.9471 29.7623 12.0328 29.3744 12.0328C28.9865 12.0114 28.7818 11.9042 28.7603 11.7114L28.4371 9.7181C28.3509 8.62502 28.5233 7.90702 28.9542 7.5641C29.3205 7.28547 29.9131 7.4355 30.7319 8.01419Z" fill="#0D131A"/>
<path d="M80.3128 17.0803C84.9455 20.7882 87.3804 25.2676 87.6174 30.5187C87.639 30.733 87.3589 30.8938 86.7771 31.0009C86.1953 31.1295 85.9044 31.0867 85.9044 30.8723C85.6889 26.0714 83.5126 21.9241 79.3754 18.4306C74.3979 14.2297 67.438 11.9686 58.4957 11.6471C50.8463 11.3684 45.3731 10.5219 42.0763 9.10728C39.4044 7.97134 37.4759 6.0531 36.2908 3.35257C36.0322 2.77388 35.8167 2.4631 35.6443 2.42024C35.4504 2.35594 35.138 2.57027 34.707 3.06322C33.2633 4.64925 32.4122 6.58893 32.1536 8.88224C31.895 11.2399 32.3906 13.0724 33.6404 14.3798C36.1615 16.9517 38.1547 19.9845 39.6199 23.478C40.5249 25.6427 41.6238 29.2542 42.9167 34.3123C44.4897 40.4635 46.2243 45.0395 48.1205 48.0401C49.6504 50.462 51.8913 52.6481 54.8434 54.5985C54.9726 54.6628 54.8865 54.9736 54.5848 55.5308C54.3047 56.0667 54.0784 56.281 53.906 56.1738C50.1136 53.6876 47.3878 51.0514 45.7287 48.2651C44.1988 45.6932 42.7228 41.5137 41.3006 35.7269C39.7707 29.4471 38.6287 25.3641 37.8745 23.478C36.711 20.4988 34.9548 17.7983 32.6061 15.3764C30.9254 13.6403 30.3867 11.0791 30.99 7.69272C31.5718 4.49922 32.7462 2.21662 34.5131 0.844923C35.3104 0.22337 35.8706 -0.0552566 36.1938 0.00904198C36.517 0.0733405 36.8295 0.52343 37.1311 1.35931C38.424 4.70284 40.2771 6.91042 42.6904 7.98206C45.4055 9.16087 50.6846 9.9003 58.528 10.2004C67.7504 10.5219 75.012 12.8152 80.3128 17.0803Z" fill="#0D131A"/>
<path d="M89.7508 18.6878C93.8665 22.2027 95.6441 26.0071 95.0839 30.1007C95.0624 30.2936 94.7391 30.3794 94.1143 30.3579C93.4894 30.3365 93.1877 30.2293 93.2093 30.0364C93.6833 26.5215 92.2827 23.2208 89.0075 20.1345C85.2366 16.5981 79.9897 14.5834 73.2668 14.0904C73.0514 14.069 72.4265 13.8118 71.3922 13.3188C70.3364 12.8044 69.9054 12.5472 70.0993 12.5472C78.4168 12.5472 84.9673 14.5941 89.7508 18.6878Z" fill="#0D131A"/>
<path d="M38.7153 101.536C39.8788 97.0141 41.5057 93.6277 43.5958 91.3773L67.5461 98.3215C69.6362 106.252 69.8409 113.807 68.1602 120.987C67.1475 125.252 65.5637 129.056 63.4089 132.4C62.2454 134.222 59.8751 135.422 56.2982 136C52.5273 136.622 48.8965 136.247 45.4058 134.875C42.8632 133.889 40.87 131.478 39.4263 127.642C38.0904 124.148 37.3685 119.958 37.2608 115.071C37.153 110.292 37.6379 105.78 38.7153 101.536Z" fill="#7CBEB3"/>
<path d="M43.8542 110.378C43.9835 109.07 45.5672 107.302 48.6055 105.073C51.6437 102.844 53.5722 102.04 54.391 102.662C55.2314 103.283 55.393 106.67 54.8759 112.821C54.3587 118.972 53.5722 122.091 52.5164 122.176C51.8915 122.219 50.2754 120.505 47.6681 117.032C45.0393 113.517 43.768 111.299 43.8542 110.378Z" fill="#006359"/>
<path d="M38.1013 102.887C38.2091 112.081 40.2884 119.744 44.3394 125.873C48.218 131.81 53.0662 135.079 58.8841 135.679C56.5139 136.279 53.9497 136.472 51.1916 136.258C45.6754 135.829 41.9584 133.557 40.0406 129.442C38.1229 125.348 37.2287 119.69 37.358 112.467L38.1013 102.887Z" fill="#68A198"/>
<path d="M42.206 94.9137C39.4048 99.6932 38.1335 106.541 38.3921 115.457C38.6722 124.738 40.6331 130.707 44.2746 133.364C46.7526 135.165 50.071 135.883 54.2297 135.518C58.2375 135.154 60.8879 134.061 62.1808 132.239C65.1113 128.102 67.029 123.109 67.934 117.257C68.7528 111.985 68.6451 106.97 67.6108 102.212C67.0936 99.8325 67.029 98.5573 67.4169 98.3858C67.8047 98.2144 68.3219 99.286 68.9683 101.601C70.3043 106.423 70.5736 111.642 69.7763 117.257C68.9144 123.366 66.9428 128.606 63.8615 132.978C62.267 135.229 58.9702 136.547 53.9711 136.933C49.0798 137.297 45.3951 136.579 42.9171 134.779C41.1287 133.471 39.6526 131.157 38.4891 127.835C37.3686 124.662 36.6898 121.019 36.4528 116.904C35.871 107.559 37.3578 100.004 40.9132 94.2386C42.1629 92.2025 43.0249 91.2273 43.4989 91.313C43.9945 91.3773 43.5635 92.5775 42.206 94.9137Z" fill="#0D131A"/>
<path d="M44.63 110.056C44.587 110.806 45.6967 112.907 47.9592 116.357C50.2648 119.872 51.7408 121.587 52.3872 121.501C53.0983 121.394 53.6801 118.49 54.1326 112.789C54.5851 107.066 54.4774 103.969 53.8094 103.498C53.1845 103.069 51.5038 103.873 48.7672 105.909C46.0522 107.945 44.6731 109.327 44.63 110.056ZM43.1433 109.735C43.2079 108.17 45.0071 106.198 48.541 103.819C52.0101 101.504 54.0895 100.668 54.779 101.311C55.9211 102.405 56.2443 106.123 55.7487 112.467C55.2315 118.811 54.3157 122.359 53.0013 123.109C52.0963 123.644 50.2109 121.951 47.3451 118.029C44.4792 114.128 43.0786 111.363 43.1433 109.735Z" fill="#0D131A"/>
<path d="M18.7727 132.464C18.665 132.143 19.0744 131.596 20.0009 130.824C20.949 130.053 21.6601 129.699 22.1341 129.763C22.996 129.871 23.5886 130.803 23.9118 132.56C24.2135 134.189 24.235 135.122 23.9765 135.357C23.6748 135.636 22.8344 135.465 21.4554 134.843C19.9686 134.179 19.0744 133.386 18.7727 132.464Z" fill="white"/>
<path d="M28.4046 134.875C26.8963 134.189 26.1421 133.504 26.1421 132.818C26.1421 132.218 26.5838 131.489 27.4673 130.632C28.3292 129.774 28.9864 129.453 29.4389 129.667C30.15 130.01 30.7318 131.017 31.1843 132.689C31.6152 134.297 31.6368 135.229 31.2489 135.486C30.8395 135.765 29.8914 135.561 28.4046 134.875Z" fill="white"/>
<path d="M33.4792 132.914C33.3284 131.8 33.7378 130.771 34.7074 129.828L36.2265 128.735C37.0238 129.078 37.6487 130.106 38.1012 131.821C38.5106 133.364 38.6075 134.264 38.3921 134.522L35.8387 134.457C34.3303 134.093 33.5438 133.579 33.4792 132.914Z" fill="white"/>
<path d="M46.1817 135.615C46.1386 135.057 46.3325 134.457 46.7634 133.814C47.2806 133.043 47.9378 132.668 48.7351 132.689C49.5323 132.71 50.1464 133.011 50.5774 133.589C50.9222 134.125 51.073 134.779 51.0299 135.55C50.9868 136.258 50.739 137.051 50.2865 137.929C49.8555 138.808 49.5108 139.248 49.2522 139.248C48.9721 139.248 48.4118 138.787 47.5715 137.865C46.688 136.901 46.2248 136.15 46.1817 135.615Z" fill="white"/>
<path d="M52.6133 136.322C52.5487 135.272 52.8396 134.404 53.486 133.718C54.0031 133.139 54.5203 132.85 55.0374 132.85C55.4253 132.85 55.8778 133.139 56.3949 133.718C56.9121 134.318 57.2353 134.918 57.3646 135.518C57.4508 135.904 57.3538 136.568 57.0737 137.511C56.7936 138.519 56.4596 139.119 56.0717 139.312C55.6839 139.526 55.0374 139.29 54.1324 138.605C53.1628 137.897 52.6564 137.136 52.6133 136.322Z" fill="white"/>
<path d="M58.9813 136.129C58.378 135.486 58.4319 134.511 59.1429 133.203C59.854 131.896 60.5543 131.339 61.2438 131.532C61.8903 131.746 62.5152 132.646 63.1185 134.232C63.6787 135.754 63.8188 136.729 63.5387 137.158C63.2801 137.544 62.6121 137.629 61.5347 137.415C60.4358 137.179 59.5847 136.751 58.9813 136.129Z" fill="white"/>
<path d="M69.97 130.278C69.8838 129.828 70.304 129.271 71.2305 128.606C72.1355 127.963 72.7927 127.727 73.2021 127.899C73.9132 128.22 74.3765 129.12 74.592 130.599C74.8074 132.035 74.7213 132.839 74.3334 133.011C73.9455 133.182 73.1806 132.978 72.0386 132.4C70.8104 131.757 70.1208 131.049 69.97 130.278Z" fill="white"/>
<path d="M78.7291 132.464C77.4147 132.014 76.6498 131.5 76.4343 130.921C76.2404 130.428 76.5744 129.721 77.4363 128.799C78.2982 127.899 78.923 127.535 79.3109 127.706C80.0651 128.027 80.593 128.853 80.8947 130.181C81.1532 131.339 81.1748 132.132 80.9593 132.561L78.7291 132.464Z" fill="white"/>
<path d="M82.2521 129.796C81.9935 129.281 82.3599 128.542 83.3511 127.577C84.3207 126.634 85.021 126.248 85.452 126.42C85.9476 126.634 86.4324 127.417 86.9064 128.767C87.3589 130.096 87.4774 130.91 87.262 131.21L84.8055 131.146C83.3834 130.803 82.5322 130.353 82.2521 129.796Z" fill="white"/>
<path d="M118.905 134.747C118.603 134.447 118.84 133.675 119.616 132.432C120.392 131.167 121.049 130.546 121.588 130.567C122.299 130.61 123.096 131.382 123.98 132.882C124.82 134.297 125.143 135.132 124.949 135.39C124.712 135.69 123.796 135.786 122.202 135.679C120.543 135.572 119.444 135.261 118.905 134.747Z" fill="white"/>
<path d="M125.951 132.978C125.65 132.657 125.843 131.853 126.533 130.567C127.201 129.281 127.783 128.66 128.278 128.703C128.752 128.745 129.42 129.496 130.282 130.953C131.101 132.389 131.435 133.268 131.284 133.589C131.09 133.911 130.304 134.029 128.925 133.943C127.46 133.857 126.468 133.536 125.951 132.978Z" fill="white"/>
<path d="M131.349 130.021C131.004 129.592 131.112 128.778 131.672 127.577C132.211 126.42 132.642 125.863 132.965 125.906C133.525 125.97 134.215 126.677 135.034 128.027C135.831 129.356 136.132 130.192 135.939 130.535C135.788 130.899 135.109 131.039 133.902 130.953C132.631 130.867 131.78 130.556 131.349 130.021Z" fill="white"/>
<path d="M20.1624 130.632L21.5846 132.4C22.5327 133.707 23.0606 134.725 23.1684 135.454L20.9058 134.297C19.419 133.461 18.7187 132.861 18.8049 132.496C18.8911 132.132 19.1497 131.714 19.5807 131.242L20.1624 130.632Z" fill="#DBDCDC"/>
<path d="M27.4351 130.76L28.6633 132.271C29.5252 133.471 30.0962 134.554 30.3763 135.518C27.726 134.597 26.3685 133.686 26.3038 132.786C26.2607 132.228 26.4331 131.725 26.821 131.275L27.4351 130.76Z" fill="#DBDCDC"/>
<path d="M37.584 134.747C36.205 134.446 35.2138 134.146 34.6105 133.846C33.9209 133.525 33.5331 133.128 33.4469 132.657C33.3607 132.25 33.4469 131.778 33.7054 131.242L34.1256 130.567C34.7074 130.846 35.4185 131.532 36.2589 132.625C36.9699 133.568 37.4117 134.275 37.584 134.747Z" fill="#DBDCDC"/>
<path d="M47.4745 133.364L47.7977 135.325C48.0779 136.804 48.4226 137.962 48.832 138.797L47.6038 137.737C46.8065 136.858 46.4295 135.958 46.4726 135.036C46.5156 134.393 46.6773 133.921 46.9574 133.621C47.1729 133.386 47.3452 133.3 47.4745 133.364Z" fill="#DBDCDC"/>
<path d="M53.2923 134.393L54.5205 136.386L56.1365 139.344C55.5332 139.151 54.9299 138.872 54.3265 138.508C53.1199 137.779 52.5596 136.997 52.6458 136.161C52.732 135.347 52.8613 134.811 53.0337 134.554L53.2923 134.393Z" fill="#DBDCDC"/>
<path d="M59.1425 133.236L60.6616 134.682C61.739 135.775 62.3962 136.686 62.6332 137.415L60.6293 136.772C59.2933 136.258 58.6469 135.754 58.69 135.261L58.9486 133.814L59.1425 133.236Z" fill="#DBDCDC"/>
<path d="M71.0369 128.831C71.2308 128.96 71.6402 129.442 72.2651 130.278C73.0408 131.328 73.4718 132.175 73.558 132.818L71.2308 131.725C70.6275 131.36 70.315 130.899 70.2935 130.342C70.272 129.935 70.3905 129.56 70.649 129.217L71.0369 128.831Z" fill="#DBDCDC"/>
<path d="M77.0811 129.024L78.1477 129.764C78.9665 130.514 79.6776 131.5 80.2809 132.721L78.5355 132.239C77.3504 131.81 76.6932 131.317 76.5639 130.76C76.4346 130.203 76.4777 129.753 76.6932 129.41L77.0811 129.024Z" fill="#DBDCDC"/>
<path d="M83.1574 127.738L84.4826 128.703C85.4307 129.538 86.0771 130.406 86.4219 131.307L84.5796 131.049C83.2867 130.728 82.5218 130.246 82.2848 129.603C82.1555 129.303 82.2093 128.928 82.4464 128.477C82.6618 128.049 82.8989 127.802 83.1574 127.738Z" fill="#DBDCDC"/>
<path d="M119.745 132.271C121.555 133.128 123.01 134.2 124.109 135.486L121.685 135.518C120.068 135.432 119.228 135.111 119.163 134.554C119.099 133.996 119.174 133.45 119.39 132.914L119.745 132.271Z" fill="#DBDCDC"/>
<path d="M126.5 130.889C126.867 130.996 127.481 131.317 128.343 131.853C129.506 132.56 130.228 133.236 130.508 133.879L128.246 133.782C126.716 133.611 125.94 133.278 125.918 132.785C125.875 132.314 125.962 131.853 126.177 131.403L126.5 130.889Z" fill="#DBDCDC"/>
<path d="M131.607 127.738L133.029 128.606C134.085 129.335 134.818 130.106 135.227 130.921L133.547 130.792C132.383 130.621 131.661 130.331 131.381 129.924C131.101 129.517 131.058 129.024 131.252 128.445L131.607 127.738Z" fill="#DBDCDC"/>
<path d="M118.291 134.939C118.119 134.318 118.464 133.321 119.325 131.95C120.187 130.556 120.931 129.849 121.556 129.828C122.181 129.806 123.053 130.621 124.174 132.271C125.273 133.879 125.747 134.972 125.596 135.55C125.467 136.065 124.26 136.225 121.976 136.033C119.692 135.84 118.464 135.475 118.291 134.939ZM120.392 132.432C119.853 133.289 119.638 133.911 119.746 134.296C119.961 134.597 120.726 134.843 122.04 135.036C123.312 135.229 124.001 135.218 124.109 135.004C124.217 134.768 123.926 134.082 123.236 132.946C122.504 131.789 121.933 131.199 121.523 131.178C121.286 131.157 120.909 131.575 120.392 132.432Z" fill="#0D131A"/>
<path d="M130.605 133.332C130.735 133.139 130.455 132.453 129.765 131.274C129.097 130.096 128.591 129.474 128.246 129.41C127.987 129.388 127.621 129.838 127.147 130.76C126.651 131.682 126.447 132.325 126.533 132.689C126.598 133.011 127.276 133.246 128.569 133.396L130.605 133.332ZM128.408 127.963C129.097 128.049 129.916 129.003 130.864 130.824C131.769 132.56 132.125 133.632 131.931 134.039C131.737 134.468 130.713 134.597 128.86 134.425C126.964 134.232 125.822 133.868 125.434 133.332C125.089 132.861 125.315 131.842 126.113 130.278C126.91 128.649 127.675 127.877 128.408 127.963Z" fill="#0D131A"/>
<path d="M132.092 127.931C131.769 128.66 131.704 129.26 131.898 129.731C131.985 129.989 132.556 130.192 133.611 130.342L135.324 130.246C135.454 130.031 135.227 129.41 134.646 128.381C134.064 127.288 133.558 126.752 133.127 126.774C132.76 126.816 132.415 127.202 132.092 127.931ZM131.381 127.127C132.049 125.906 132.62 125.295 133.094 125.295C133.891 125.295 134.732 126.184 135.615 127.963C136.477 129.678 136.779 130.749 136.52 131.178L133.644 131.274C131.877 131.06 130.918 130.76 130.767 130.374C130.444 129.538 130.649 128.456 131.381 127.127Z" fill="#0D131A"/>
<path d="M56.0715 134.168C55.7052 133.739 55.3497 133.546 55.0049 133.589C54.5093 133.611 54.0676 133.921 53.6797 134.522C53.2919 135.1 53.1303 135.657 53.1949 136.193C53.2596 136.686 53.6797 137.244 54.4555 137.865C55.2096 138.444 55.716 138.68 55.9746 138.572C56.1469 138.508 56.3301 138.197 56.524 137.64C56.7826 136.997 56.8688 136.397 56.7826 135.84C56.718 135.175 56.4809 134.618 56.0715 134.168ZM52.7101 133.75C53.4427 132.678 54.24 132.175 55.1019 132.239C55.7268 132.282 56.287 132.603 56.7826 133.203C57.2782 133.804 57.5906 134.543 57.7199 135.422C57.8708 136.279 57.8061 137.211 57.526 138.219C57.2459 139.205 56.9011 139.773 56.4917 139.923C55.9746 140.116 55.145 139.837 54.003 139.087C52.7747 138.251 52.0744 137.34 51.9021 136.354C51.7728 135.604 52.0421 134.736 52.7101 133.75Z" fill="#0D131A"/>
<path d="M49.8988 134.104C49.6186 133.718 49.3062 133.503 48.9614 133.461C48.552 133.418 48.1211 133.589 47.6686 133.975C47.1945 134.361 46.9575 134.779 46.9575 135.229C46.979 135.786 47.2915 136.45 47.8948 137.222C48.4335 137.951 48.8322 138.315 49.0907 138.315C49.3278 138.294 49.5863 137.983 49.8664 137.383C50.1681 136.783 50.3297 136.183 50.3513 135.582C50.3728 135.025 50.222 134.532 49.8988 134.104ZM46.5696 133.043C47.3669 132.335 48.1965 132.035 49.0584 132.142C49.7695 132.228 50.3836 132.614 50.9007 133.3C51.3963 133.986 51.6226 134.747 51.5795 135.582C51.5579 136.268 51.2886 137.147 50.7714 138.219C50.2112 139.333 49.7264 139.912 49.317 139.955C48.8429 140.019 48.0995 139.472 47.0868 138.315C46.0094 137.115 45.4492 136.097 45.4061 135.261C45.363 134.468 45.7508 133.728 46.5696 133.043Z" fill="#0D131A"/>
<path d="M62.3425 133.461C61.8469 132.775 61.3944 132.432 60.985 132.432C60.5756 132.389 60.1662 132.689 59.7568 133.332C59.3259 133.996 59.1642 134.618 59.272 135.197C59.3797 135.711 59.9831 136.161 61.082 136.547C62.1378 136.89 62.7519 136.986 62.9243 136.836C63.0751 136.708 63.1075 136.258 63.0213 135.486C62.9351 134.65 62.7088 133.975 62.3425 133.461ZM61.2113 131.017C62.2671 131.167 63.0967 132.271 63.7 134.329C64.2603 136.258 64.368 137.415 64.0232 137.801L60.985 137.608C59.175 137.115 58.1946 136.472 58.0438 135.679C57.8714 134.8 58.1192 133.793 58.7872 132.657C59.5198 131.435 60.3278 130.889 61.2113 131.017Z" fill="#0D131A"/>
<path d="M38.6828 131.564C39.2215 133.621 39.2753 134.779 38.8444 135.036C38.2841 135.357 37.1852 135.293 35.5476 134.843C33.8453 134.372 32.8972 133.804 32.7033 133.139C32.4447 132.346 32.7464 131.328 33.6083 130.085C34.4917 128.799 35.3752 128.188 36.2586 128.252C37.2929 128.317 38.101 129.421 38.6828 131.564ZM34.0608 132.625C34.1254 133.075 34.718 133.482 35.8385 133.846C36.9159 134.189 37.5731 134.254 37.8101 134.039C37.9825 133.889 37.8855 133.171 37.5192 131.885C37.1313 130.514 36.6788 129.785 36.1617 129.699C35.7307 129.635 35.2567 129.924 34.7395 130.567C34.1577 131.253 33.9315 131.939 34.0608 132.625Z" fill="#0D131A"/>
<path d="M26.9179 132.818C26.9179 133.311 27.5105 133.825 28.6956 134.361C29.8592 134.875 30.5272 135.015 30.6995 134.779C30.8935 134.543 30.8396 133.846 30.5379 132.689C30.2147 131.446 29.7945 130.771 29.2774 130.664C28.7818 130.557 28.2647 130.782 27.726 131.339C27.2304 131.853 26.961 132.325 26.9179 132.753V132.818ZM26.8856 130.278C27.8122 129.421 28.631 129.056 29.342 129.185C30.4194 129.378 31.1951 130.503 31.6692 132.56C32.1217 134.511 32.1325 135.668 31.7015 136.033C31.2921 136.418 30.1501 136.204 28.2754 135.39C26.3146 134.575 25.3773 133.654 25.4635 132.625C25.5281 131.896 26.0021 131.114 26.8856 130.278Z" fill="#0D131A"/>
<path d="M82.8991 129.346C82.9638 129.774 83.5887 130.181 84.7738 130.567C85.9158 130.932 86.5622 131.017 86.7131 130.824C86.8639 130.631 86.767 129.967 86.4222 128.831C86.0559 127.631 85.6572 127.009 85.2263 126.966C84.86 126.924 84.3644 127.202 83.7395 127.802C83.1146 128.424 82.8345 128.938 82.8991 129.346ZM82.9315 127.192C84.0519 126.12 84.9354 125.691 85.5818 125.906C86.4006 126.206 87.0686 127.224 87.5858 128.96C88.0814 130.61 88.1676 131.585 87.8443 131.885C87.5211 132.164 86.4653 132.067 84.6768 131.596C82.8453 131.103 81.8218 130.556 81.6063 129.956C81.3477 129.206 81.7894 128.285 82.9315 127.192Z" fill="#0D131A"/>
<path d="M78.7942 131.917C79.7423 132.239 80.2917 132.325 80.4426 132.175C80.5934 132.025 80.5611 131.414 80.3456 130.342C80.1086 129.206 79.7746 128.585 79.3436 128.478C78.9127 128.37 78.4063 128.606 77.8245 129.185C77.2427 129.785 77.0057 130.31 77.1135 130.76C77.2427 131.21 77.803 131.596 78.7942 131.917ZM79.6022 127.288C80.3133 127.459 80.9059 128.392 81.3799 130.085C81.8109 131.735 81.854 132.818 81.5092 133.332C81.2937 133.654 80.3348 133.514 78.6326 132.914C76.8657 132.293 75.9176 131.639 75.7883 130.953C75.6374 130.267 76.0468 129.442 77.0165 128.478C78.0077 127.492 78.8696 127.095 79.6022 127.288Z" fill="#0D131A"/>
<path d="M72.265 131.853C73.2131 132.368 73.7841 132.56 73.978 132.432C74.1504 132.325 74.1719 131.703 74.0426 130.567C73.8918 129.367 73.5901 128.692 73.1376 128.542C72.7067 128.392 72.1895 128.542 71.5862 128.992C71.0044 129.421 70.7243 129.849 70.7458 130.278C70.7674 130.792 71.2738 131.317 72.265 131.853ZM73.4932 127.352C74.3982 127.545 74.9369 128.606 75.1093 130.535C75.2601 132.357 75.1524 133.396 74.786 133.653C74.3766 133.911 73.3639 133.611 71.7478 132.753C70.1102 131.853 69.2591 131.071 69.1944 130.406C69.1298 129.785 69.593 129.078 70.5842 128.285C71.6401 127.47 72.6097 127.159 73.4932 127.352Z" fill="#0D131A"/>
<path d="M21.3259 133.879C22.468 134.457 23.1252 134.639 23.2976 134.425C23.4915 134.211 23.4592 133.536 23.2006 132.4C22.9205 131.221 22.5865 130.578 22.1986 130.471C21.7461 130.321 21.1967 130.492 20.5502 130.985C19.9038 131.478 19.5806 131.96 19.5806 132.432C19.6021 132.796 20.1839 133.278 21.3259 133.879ZM22.4895 129.024C23.4161 129.217 24.0733 130.342 24.4611 132.4C24.8274 134.372 24.8167 135.475 24.4288 135.711C23.7608 136.161 22.5542 135.925 20.8088 135.004C19.085 134.104 18.1907 133.3 18.1261 132.593C18.0399 131.778 18.5463 130.932 19.6452 130.053C20.7226 129.195 21.6707 128.853 22.4895 129.024Z" fill="#0D131A"/>
</svg>
